<?xml version="1.0" encoding="UTF-8" standalone="no"?><!-- Generator: Gravit.io --><svg xmlns="http://www.w3.org/2000/svg" xmlns:xlink="http://www.w3.org/1999/xlink" style="isolation:isolate" viewBox="0 0 1080 1080" width="1080pt" height="1080pt"><defs><clipPath id="_clipPath_48U6fUOhOq1KnNhJqu2rs0xrajT49Zs4"><rect width="1080" height="1080"/></clipPath></defs><g clip-path="url(#_clipPath_48U6fUOhOq1KnNhJqu2rs0xrajT49Zs4)"><ellipse vector-effect="non-scaling-stroke" cx="540" cy="386" rx="244" ry="234.00000000000003" fill="rgb(53,158,255)"/><path d=" M 528.478 247.062 L 594.214 247.062 C 614.419 247.063 630.822 262.794 630.822 282.17 L 630.822 326.688 L 630.822 326.688 L 585.919 326.688 L 585.919 292.114 C 585.919 288.146 582.561 284.925 578.423 284.925 L 528.478 284.925 L 528.478 285.711 C 528.478 288.147 526.5 290.125 524.064 290.125 L 523.402 290.125 C 520.967 290.125 518.989 288.147 518.989 285.711 L 518.989 245.301 C 518.989 242.865 520.967 240.888 523.402 240.887 L 524.064 240.887 C 526.5 240.888 528.478 242.865 528.478 245.301 L 528.478 247.062 Z " fill-rule="evenodd" fill="rgb(255,255,255)"/><path d=" M 630.822 342.287 L 630.822 386.805 C 630.822 406.181 614.419 421.913 594.214 421.913 L 523.733 421.913 L 523.733 384.05 L 578.423 384.05 C 582.561 384.05 585.919 380.829 585.919 376.861 L 585.919 342.287 L 584.743 342.287 C 582.213 342.288 580.158 340.249 580.158 337.738 L 580.158 337.738 C 580.158 335.226 582.213 333.188 584.743 333.188 L 630.982 333.188 C 633.512 333.188 635.567 335.226 635.567 337.738 L 635.567 337.738 C 635.567 340.249 633.512 342.288 630.982 342.287 L 630.822 342.287 Z " fill-rule="evenodd" fill="rgb(255,255,255)"/><path d=" M 501.38 247.062 L 501.38 247.062 L 462.89 247.062 L 462.89 247.062 C 459.67 247.063 457.057 249.676 457.057 252.895 L 457.057 514.555 C 457.057 515.001 457.107 515.435 457.219 515.846 C 454.721 515.978 452.736 517.962 452.736 520.388 L 452.736 520.388 C 452.736 522.899 454.865 524.938 457.486 524.938 L 507.461 524.938 C 510.083 524.938 512.211 522.899 512.211 520.388 L 512.211 520.388 C 512.211 517.876 510.083 515.838 507.461 515.838 L 507.071 515.838 L 507.071 515.838 C 507.164 515.425 507.212 514.995 507.212 514.555 L 507.212 421.913 L 511.177 421.913 L 511.177 424.734 C 511.177 427.14 513.13 429.094 515.537 429.094 L 515.663 429.094 L 515.663 429.094 L 515.663 429.094 C 518.07 429.094 520.023 427.14 520.023 424.734 L 520.023 381.91 C 520.023 379.504 518.07 377.55 515.663 377.55 L 515.537 377.55 C 513.13 377.55 511.177 379.504 511.177 381.91 L 511.177 384.298 L 507.212 384.298 L 507.212 284.677 L 512.211 284.677 L 512.211 247.062 L 501.38 247.062 Z " fill-rule="evenodd" fill="rgb(255,255,255)"/><g clip-path="url(#_clipPath_WZM2WVUMUyZnlGrxTKsnhwI8li8YMjT2)"><text transform="matrix(1,0,0,1,305.84,773.92)" style="font-family:'Raleway';font-weight:700;font-size:120px;font-style:normal;fill:#359eff;stroke:none;">Pipeline</text></g><defs><clipPath id="_clipPath_WZM2WVUMUyZnlGrxTKsnhwI8li8YMjT2"><rect x="0" y="0" width="469" height="140.88" transform="matrix(1,0,0,1,305.5,661.12)"/></clipPath></defs></g></svg>