<svg width="12" height="12" viewBox="0 0 12 12" fill="none" xmlns="http://www.w3.org/2000/svg">
<path fill-rule="evenodd" clip-rule="evenodd" d="M1.40811 0.166748H10.5919C11.2778 0.166748 11.8333 0.739029 11.8333 1.44556V2.33894C11.8333 2.68169 11.6994 3.01083 11.4616 3.25088L7.66697 7.08918C7.60151 7.156 7.51262 7.19312 7.42073 7.1925L4.24355 7.1826C4.14685 7.1826 4.05496 7.14115 3.98889 7.06876L0.501807 3.23355C0.286191 2.9966 0.166672 2.68355 0.166672 2.35874V1.44618C0.166672 0.739647 0.722227 0.166748 1.40811 0.166748ZM4.4134 8.23083L7.24523 8.23949C7.42181 8.24011 7.56475 8.38798 7.56475 8.56925V10.1624C7.56475 10.3442 7.46145 10.5088 7.30049 10.5849L4.72991 11.792C4.66985 11.8198 4.60619 11.8334 4.54253 11.8334C4.45784 11.8334 4.37316 11.8087 4.29928 11.7598C4.17016 11.6744 4.09208 11.5272 4.09208 11.3694V8.56059C4.09208 8.37808 4.23622 8.23021 4.4134 8.23083Z" fill="#3E3E3E"/>
</svg>
