<svg width="24" height="24" viewBox="0 0 24 24" fill="none" xmlns="http://www.w3.org/2000/svg">
<path d="M14.5702 8.70116L14.4665 8.19065L13.9607 8.31519C12.9787 8.55697 12.25 9.44277 12.25 10.5V13.5C12.25 14.8936 11.213 16.0457 9.86887 16.2255L9.5084 16.2737L9.44326 16.6315C9.14622 18.2631 7.71704 19.5 6 19.5C4.06701 19.5 2.5 17.933 2.5 16C2.5 14.067 4.06701 12.5 6 12.5C7.69247 12.5 9.10538 13.7018 9.42986 15.2989L9.53358 15.8093L10.0394 15.6848C11.0213 15.4431 11.75 14.5572 11.75 13.5V10.5C11.75 9.10648 12.787 7.95434 14.1311 7.77446L14.4916 7.72623L14.5567 7.36845C14.8538 5.73692 16.283 4.5 18 4.5C19.933 4.5 21.5 6.06701 21.5 8C21.5 9.93296 19.933 11.5 18 11.5C16.3075 11.5 14.8946 10.2982 14.5702 8.70116Z" fill="white" stroke="#358CFD"/>
</svg>
