<svg width="17" height="19" viewBox="0 0 17 19" fill="none" xmlns="http://www.w3.org/2000/svg">
<path d="M12.2846 4V5H13.0346C14.8295 5 16.2846 6.45507 16.2846 8.25V15.75C16.2846 17.5449 14.8295 19 13.0346 19H3.53461C1.73968 19 0.284615 17.5449 0.284615 15.75V8.25C0.284615 6.45507 1.73968 5 3.53461 5H4.28461V4C4.28461 1.79086 6.07547 0 8.28461 0C10.4937 0 12.2846 1.79086 12.2846 4ZM5.78461 4V5H10.7846V4C10.7846 2.61929 9.66531 1.5 8.28461 1.5C6.90391 1.5 5.78461 2.61929 5.78461 4ZM8.28461 13.5C9.11301 13.5 9.78461 12.8284 9.78461 12C9.78461 11.1716 9.11301 10.5 8.28461 10.5C7.45621 10.5 6.78461 11.1716 6.78461 12C6.78461 12.8284 7.45621 13.5 8.28461 13.5Z" fill="#2C14DD"/>
</svg>
