<svg width="21" height="20" viewBox="0 0 21 20" fill="none" xmlns="http://www.w3.org/2000/svg">
<path d="M0.226429 0.219668C-0.0480334 0.485938 -0.0729782 0.902597 0.151575 1.19621L0.226429 1.28033L4.38514 5.3149C2.40401 6.66437 0.923333 8.6799 0.308077 11.0644C0.204402 11.4662 0.456116 11.8735 0.870289 11.9741C1.28447 12.0746 1.70427 11.8305 1.80796 11.4286C2.35372 9.3135 3.70162 7.53947 5.49829 6.39452L7.3636 8.2043C6.63432 8.9258 6.18462 9.9143 6.18462 11.0046C6.18462 13.2138 8.03058 15.0046 10.3077 15.0046C11.4316 15.0046 12.4505 14.5683 13.1943 13.8608L19.2957 19.7803C19.5976 20.0732 20.087 20.0732 20.3889 19.7803C20.6634 19.5141 20.6884 19.0974 20.4638 18.8038L20.3889 18.7197L14.0873 12.6055L14.0886 12.604L6.9255 5.65782L6.92677 5.656L5.75862 4.52549L1.31973 0.219668C1.01782 -0.0732225 0.528332 -0.0732225 0.226429 0.219668ZM10.3077 3.5C9.27661 3.5 8.27615 3.64807 7.32989 3.925L8.60496 5.16119C9.15725 5.05532 9.72675 5 10.3077 5C14.3515 5 17.8425 7.68026 18.8085 11.4332C18.912 11.835 19.3317 12.0794 19.7459 11.9791C20.1602 11.8787 20.4121 11.4716 20.3086 11.0697C19.1717 6.65272 15.0652 3.5 10.3077 3.5ZM10.5084 7.00928L14.4266 10.81C14.3217 8.7531 12.624 7.10764 10.5084 7.00928Z" fill="#212121"/>
</svg>
